<?xml version="1.0" encoding="UTF-8"?><svg id="Layer_1" xmlns="http://www.w3.org/2000/svg" viewBox="0 0 106.15 106.15"><defs><style>.cls-1{fill:#fff;}.cls-2{fill:#00765c;}</style></defs><rect class="cls-2" x="0" y="0" width="106.15" height="106.15" rx="16" ry="16"/><path class="cls-1" d="m52.72,10.13L16.83,31.27c-.23.14-.37.38-.37.65v42.3c0,.27.14.52.37.65l35.88,21.13c.24.14.53.14.77,0l35.83-21.1c.23-.14.37-.38.37-.65v-9.52c0-.61-.68-.96-1.19-.62-2.07,1.36-4.55,2.15-7.21,2.15-.15,0-.3,0-.44-.01-7.08-.23-12.74-6.04-12.74-13.17s5.66-12.95,12.74-13.18c.14-.01.29-.01.44-.01,2.66,0,5.14.79,7.21,2.15.51.34,1.19,0,1.19-.62v-9.52c0-.27-.14-.52-.37-.65L53.49,10.13c-.24-.14-.53-.14-.77,0Zm4.76,42.94c0,9.15,5.61,17,13.58,20.28.58.24.64,1.03.1,1.35l-16.95,9.99c-.24.14-.53.14-.77,0l-26.27-15.47c-.23-.14-.37-.38-.37-.65v-9.18c0-.42.34-.76.76-.76h21.99c.42,0,.76-.34.76-.76v-9.58c0-.42-.34-.76-.76-.76h-21.99c-.42,0-.76-.34-.76-.76v-9.18c0-.27.14-.52.37-.65l26.27-15.47c.24-.14.53-.14.77,0l16.95,9.99c.54.32.48,1.11-.1,1.35-7.97,3.28-13.58,11.13-13.58,20.28Z"/></svg>