<?xml version="1.0" encoding="UTF-8"?><svg id="Layer_1" xmlns="http://www.w3.org/2000/svg" viewBox="0 0 510.67 106.15"><defs><style>.cls-1{fill:#fff;}.cls-2{fill:#00765c;}.cls-3{fill:#231f20;}</style></defs><rect class="cls-2" x="0" y="0" width="106.15" height="106.15" rx="14" ry="14"/><path class="cls-1" d="m52.72,10.13L16.83,31.27c-.23.14-.37.38-.37.65v42.3c0,.27.14.52.37.65l35.88,21.13c.24.14.53.14.77,0l35.83-21.1c.23-.14.37-.38.37-.65v-9.52c0-.61-.68-.96-1.19-.62-2.07,1.36-4.55,2.15-7.21,2.15-.15,0-.3,0-.44-.01-7.08-.23-12.74-6.04-12.74-13.17s5.66-12.95,12.74-13.18c.14-.01.29-.01.44-.01,2.66,0,5.14.79,7.21,2.15.51.34,1.19,0,1.19-.62v-9.52c0-.27-.14-.52-.37-.65L53.49,10.13c-.24-.14-.53-.14-.77,0Zm4.76,42.94c0,9.15,5.61,17,13.58,20.28.58.24.64,1.03.1,1.35l-16.95,9.99c-.24.14-.53.14-.77,0l-26.27-15.47c-.23-.14-.37-.38-.37-.65v-9.18c0-.42.34-.76.76-.76h21.99c.42,0,.76-.34.76-.76v-9.58c0-.42-.34-.76-.76-.76h-21.99c-.42,0-.76-.34-.76-.76v-9.18c0-.27.14-.52.37-.65l26.27-15.47c.24-.14.53-.14.77,0l16.95,9.99c.54.32.48,1.11-.1,1.35-7.97,3.28-13.58,11.13-13.58,20.28Z"/><path class="cls-3" d="m121.89,82.14V23.93h38.4v8.83h-27.97v15.59h25.9v8.71h-25.9v16.25h28.09v8.83h-38.52Z"/><path class="cls-3" d="m183.38,83.04c-3.33,0-6.3-.49-8.91-1.46-2.6-.98-4.73-2.41-6.37-4.3-1.64-1.89-2.68-4.19-3.12-6.89l9.57-1.41c.49,2.14,1.5,3.73,3.01,4.79,1.51,1.05,3.49,1.58,5.94,1.58s4.43-.49,5.88-1.48c1.45-.99,2.17-2.21,2.17-3.67,0-1.25-.49-2.28-1.46-3.09-.98-.81-2.43-1.42-4.36-1.84l-7.34-1.56c-4.09-.88-7.15-2.34-9.18-4.38s-3.05-4.63-3.05-7.81c0-2.66.73-4.97,2.19-6.93,1.46-1.97,3.49-3.49,6.09-4.57,2.6-1.08,5.64-1.62,9.1-1.62s6.17.49,8.57,1.46c2.41.98,4.35,2.34,5.82,4.1,1.47,1.76,2.44,3.83,2.91,6.23l-9.1,1.37c-.39-1.56-1.25-2.89-2.58-3.98s-3.15-1.64-5.47-1.64c-2.16,0-3.95.48-5.35,1.43-1.41.95-2.11,2.16-2.11,3.61,0,1.28.48,2.32,1.45,3.12.96.81,2.5,1.45,4.61,1.91l7.42,1.56c4.11.89,7.17,2.29,9.16,4.22,1.99,1.93,2.99,4.41,2.99,7.46,0,2.76-.79,5.17-2.36,7.23-1.58,2.06-3.75,3.67-6.52,4.82s-5.97,1.74-9.59,1.74Z"/><path class="cls-3" d="m228,39.01v7.93h-24.96v-7.93h24.96Zm-18.52-10.59h10.08v41.52c0,1.54.33,2.66,1,3.36s1.78,1.05,3.34,1.05c.49,0,1.13-.04,1.91-.12s1.41-.16,1.88-.23l1.25,7.85c-1.02.26-2.1.45-3.24.57-1.15.12-2.27.18-3.36.18-4.19,0-7.38-1-9.57-3.01-2.19-2-3.28-4.9-3.28-8.67V28.43Z"/><path class="cls-3" d="m245.67,83c-2.76,0-5.24-.5-7.44-1.48-2.2-.99-3.94-2.45-5.21-4.38-1.28-1.93-1.91-4.31-1.91-7.15,0-2.45.46-4.47,1.37-6.05.91-1.59,2.15-2.86,3.73-3.81,1.58-.95,3.35-1.67,5.33-2.17,1.98-.49,4.02-.85,6.13-1.05,2.55-.29,4.61-.53,6.17-.74,1.56-.21,2.7-.55,3.42-1.02.72-.47,1.07-1.18,1.07-2.15v-.23c0-1.38-.29-2.56-.88-3.54s-1.44-1.72-2.56-2.25c-1.12-.52-2.51-.78-4.18-.78s-3.08.25-4.32.76c-1.24.51-2.24,1.19-3.01,2.03-.77.85-1.31,1.78-1.62,2.79l-9.41-1.48c.7-2.63,1.92-4.82,3.65-6.58,1.73-1.76,3.85-3.09,6.37-3.98,2.51-.9,5.31-1.35,8.38-1.35,2.19,0,4.33.26,6.43.78,2.1.52,3.99,1.36,5.68,2.52,1.69,1.16,3.04,2.68,4.04,4.57,1,1.89,1.5,4.2,1.5,6.93v28.95h-9.73v-5.98h-.35c-.62,1.22-1.5,2.36-2.62,3.4-1.12,1.04-2.51,1.88-4.16,2.5-1.65.62-3.61.94-5.88.94Zm2.58-7.5c2.08,0,3.89-.41,5.41-1.23s2.7-1.91,3.52-3.26c.82-1.35,1.23-2.84,1.23-4.45v-5c-.34.26-.88.5-1.62.72-.74.22-1.59.42-2.54.59-.95.17-1.9.33-2.85.47-.95.14-1.79.25-2.52.33-1.48.21-2.83.55-4.04,1.04-1.21.48-2.17,1.13-2.87,1.95s-1.05,1.89-1.05,3.22c0,1.22.31,2.25.94,3.09.62.83,1.48,1.46,2.58,1.89s2.37.64,3.83.64Z"/><path class="cls-3" d="m296.47,39.01v7.93h-24.96v-7.93h24.96Zm-18.52-10.59h10.08v41.52c0,1.54.33,2.66,1,3.36s1.78,1.05,3.34,1.05c.49,0,1.13-.04,1.91-.12s1.41-.16,1.88-.23l1.25,7.85c-1.02.26-2.1.45-3.24.57-1.15.12-2.27.18-3.36.18-4.19,0-7.38-1-9.57-3.01-2.19-2-3.28-4.9-3.28-8.67V28.43Z"/><path class="cls-3" d="m319.64,83.04c-4.32,0-8.05-.92-11.19-2.77-3.14-1.85-5.55-4.44-7.25-7.77-1.69-3.33-2.54-7.24-2.54-11.72s.84-8.29,2.52-11.66c1.68-3.37,4.05-6,7.11-7.89,3.06-1.89,6.63-2.83,10.72-2.83,2.73,0,5.31.45,7.71,1.35,2.41.9,4.53,2.25,6.37,4.06,1.84,1.81,3.27,4.09,4.32,6.84,1.04,2.75,1.56,5.97,1.56,9.67v3.05h-35.7v-6.88h30.66l-4.69,1.99c0-2.45-.39-4.58-1.17-6.41-.78-1.82-1.92-3.24-3.42-4.24-1.5-1-3.35-1.5-5.57-1.5s-4.06.51-5.62,1.52-2.75,2.4-3.57,4.16-1.23,3.73-1.23,5.92v4.65c0,2.68.46,4.96,1.37,6.84.91,1.88,2.21,3.29,3.89,4.26,1.68.96,3.64,1.45,5.88,1.45,1.51,0,2.88-.22,4.1-.66,1.22-.44,2.27-1.09,3.14-1.93.87-.85,1.53-1.88,1.97-3.11l9.3,1.48c-.65,2.42-1.83,4.54-3.54,6.37-1.71,1.82-3.85,3.24-6.43,4.26-2.58,1.02-5.48,1.52-8.71,1.52Z"/><path class="cls-3" d="m369.81,82.96c-5.13,0-9.72-1.2-13.77-3.59-4.05-2.4-7.23-5.83-9.55-10.29-2.32-4.47-3.48-9.8-3.48-16s1.17-11.61,3.5-16.07c2.33-4.47,5.52-7.9,9.57-10.29,4.05-2.4,8.63-3.59,13.73-3.59,3.23,0,6.24.46,9.02,1.39,2.79.92,5.27,2.26,7.44,4,2.17,1.75,3.96,3.87,5.37,6.39,1.41,2.51,2.34,5.36,2.81,8.54h-10.51c-.34-1.74-.92-3.29-1.74-4.65-.82-1.35-1.85-2.51-3.09-3.46-1.24-.95-2.63-1.67-4.18-2.15-1.55-.48-3.21-.72-4.98-.72-3.26,0-6.13.81-8.61,2.44-2.49,1.63-4.42,3.98-5.8,7.05-1.38,3.07-2.07,6.78-2.07,11.13s.7,8.1,2.09,11.17c1.39,3.07,3.33,5.4,5.8,6.99,2.47,1.59,5.34,2.38,8.59,2.38,1.77,0,3.42-.24,4.96-.72,1.54-.48,2.92-1.19,4.16-2.13,1.24-.94,2.28-2.09,3.12-3.46.85-1.37,1.44-2.92,1.78-4.67h10.51c-.42,2.89-1.3,5.56-2.64,8.01-1.34,2.45-3.08,4.6-5.21,6.45-2.14,1.85-4.62,3.29-7.46,4.32-2.84,1.03-5.96,1.54-9.38,1.54Z"/><path class="cls-3" d="m419.16,83.04c-4.19,0-7.85-.93-10.96-2.79-3.11-1.86-5.52-4.47-7.23-7.81-1.71-3.35-2.56-7.25-2.56-11.7s.85-8.36,2.56-11.72c1.71-3.36,4.11-5.97,7.23-7.83,3.11-1.86,6.76-2.79,10.96-2.79s7.88.93,11,2.79c3.11,1.86,5.52,4.47,7.23,7.83,1.71,3.36,2.56,7.27,2.56,11.72s-.85,8.35-2.56,11.7c-1.71,3.35-4.12,5.95-7.23,7.81-3.11,1.86-6.78,2.79-11,2.79Zm0-8.24c2.32,0,4.26-.62,5.82-1.86,1.56-1.24,2.74-2.92,3.54-5.04.79-2.12,1.19-4.51,1.19-7.17s-.4-5.12-1.19-7.25c-.79-2.12-1.97-3.79-3.54-5.02-1.56-1.22-3.5-1.84-5.82-1.84s-4.22.61-5.78,1.84c-1.56,1.22-2.73,2.9-3.52,5.02-.78,2.12-1.17,4.54-1.17,7.25s.39,5.05,1.17,7.17c.78,2.12,1.95,3.8,3.52,5.04,1.56,1.24,3.49,1.86,5.78,1.86Z"/><path class="cls-3" d="m445.54,82.14v-43.12h9.77v7.19h.39c.78-2.5,2.11-4.41,3.98-5.74s4.09-1.99,6.64-1.99c.6,0,1.23.02,1.89.06s1.23.1,1.7.18v9.22c-.42-.1-1.09-.21-2.01-.31-.92-.1-1.84-.16-2.75-.16-1.8,0-3.42.39-4.86,1.17s-2.58,1.88-3.42,3.3c-.83,1.42-1.25,3.11-1.25,5.06v25.16h-10.08Z"/><path class="cls-3" d="m491.33,83.04c-4.32,0-8.05-.92-11.19-2.77-3.14-1.85-5.55-4.44-7.25-7.77-1.69-3.33-2.54-7.24-2.54-11.72s.84-8.29,2.52-11.66c1.68-3.37,4.05-6,7.11-7.89,3.06-1.89,6.63-2.83,10.72-2.83,2.73,0,5.31.45,7.71,1.35,2.41.9,4.53,2.25,6.37,4.06,1.84,1.81,3.27,4.09,4.32,6.84,1.04,2.75,1.56,5.97,1.56,9.67v3.05h-35.7v-6.88h30.66l-4.69,1.99c0-2.45-.39-4.58-1.17-6.41-.78-1.82-1.92-3.24-3.42-4.24-1.5-1-3.35-1.5-5.57-1.5s-4.06.51-5.62,1.52-2.75,2.4-3.57,4.16-1.23,3.73-1.23,5.92v4.65c0,2.68.46,4.96,1.37,6.84.91,1.88,2.21,3.29,3.89,4.26,1.68.96,3.64,1.45,5.88,1.45,1.51,0,2.88-.22,4.1-.66,1.22-.44,2.27-1.09,3.14-1.93.87-.85,1.53-1.88,1.97-3.11l9.3,1.48c-.65,2.42-1.83,4.54-3.54,6.37-1.71,1.82-3.85,3.24-6.43,4.26s-5.48,1.52-8.71,1.52Z"/></svg>